<svg width="35" height="25" viewBox="0 0 35 25" fill="none" xmlns="http://www.w3.org/2000/svg"><path d="M27.708 24.167H8.75A8.75 8.75 0 0 1 7.33 6.782 11.69 11.69 0 0 1 17.5.833c2.628-.01 5.18.877 7.236 2.514a11.73 11.73 0 0 1 4.084 6.32 7.292 7.292 0 0 1-1.112 14.5M17.5 3.75a8.77 8.77 0 0 0-7.63 4.464l-.683 1.223-1.383.227A5.833 5.833 0 0 0 8.75 21.25h18.958a4.375 4.375 0 0 0 .671-8.699l-1.919-.292-.47-1.884A8.73 8.73 0 0 0 17.5 3.75m0 14.583L11.667 12.5h3.718V8.125h4.23V12.5h3.718z" fill="#fff"/></svg>